<mxfile host="app.diagrams.net" modified="2022-11-07T09:55:16.035Z" agent="5.0 (X11; Linux x86_64) AppleWebKit/537.36 (KHTML, like Gecko) Chrome/102.0.0.0 Safari/537.36" etag="xS-jCh6xsU5ivKnYC4_4" version="20.5.1" type="github">
  <diagram id="-z4oQeGqkT0M_WZGCZz8" name="Page-1">
    <mxGraphModel dx="2584" dy="1158" grid="1" gridSize="10" guides="1" tooltips="1" connect="1" arrows="1" fold="1" page="1" pageScale="1" pageWidth="827" pageHeight="1169" math="0" shadow="0">
      <root>
        <mxCell id="0" />
        <mxCell id="1" parent="0" />
        <mxCell id="fv_3UhncNjWVcKoHIJb1-1" value="" style="shape=cylinder3;whiteSpace=wrap;html=1;boundedLbl=1;backgroundOutline=1;size=15;" parent="1" vertex="1">
          <mxGeometry x="440" y="50" width="170" height="200" as="geometry" />
        </mxCell>
        <mxCell id="wbTkz9vaadN7zLrcwkUB-14" value="Standalone" style="swimlane;fontStyle=0;childLayout=stackLayout;horizontal=1;startSize=30;horizontalStack=0;resizeParent=1;resizeParentMax=0;resizeLast=0;collapsible=1;marginBottom=0;fontFamily=Helvetica;fontSize=27;" vertex="1" parent="1">
          <mxGeometry x="-440" y="50" width="200" height="210" as="geometry" />
        </mxCell>
        <mxCell id="wbTkz9vaadN7zLrcwkUB-15" value="Admin" style="text;strokeColor=none;fillColor=none;align=left;verticalAlign=middle;spacingLeft=4;spacingRight=4;overflow=hidden;points=[[0,0.5],[1,0.5]];portConstraint=eastwest;rotatable=0;fontFamily=Helvetica;fontSize=19;" vertex="1" parent="wbTkz9vaadN7zLrcwkUB-14">
          <mxGeometry y="30" width="200" height="30" as="geometry" />
        </mxCell>
        <mxCell id="wbTkz9vaadN7zLrcwkUB-16" value="QC" style="text;strokeColor=none;fillColor=none;align=left;verticalAlign=middle;spacingLeft=4;spacingRight=4;overflow=hidden;points=[[0,0.5],[1,0.5]];portConstraint=eastwest;rotatable=0;fontFamily=Helvetica;fontSize=19;" vertex="1" parent="wbTkz9vaadN7zLrcwkUB-14">
          <mxGeometry y="60" width="200" height="30" as="geometry" />
        </mxCell>
        <mxCell id="wbTkz9vaadN7zLrcwkUB-18" value="SK" style="text;strokeColor=none;fillColor=none;align=left;verticalAlign=middle;spacingLeft=4;spacingRight=4;overflow=hidden;points=[[0,0.5],[1,0.5]];portConstraint=eastwest;rotatable=0;fontFamily=Helvetica;fontSize=19;" vertex="1" parent="wbTkz9vaadN7zLrcwkUB-14">
          <mxGeometry y="90" width="200" height="30" as="geometry" />
        </mxCell>
        <mxCell id="wbTkz9vaadN7zLrcwkUB-19" value="SMR" style="text;strokeColor=none;fillColor=none;align=left;verticalAlign=middle;spacingLeft=4;spacingRight=4;overflow=hidden;points=[[0,0.5],[1,0.5]];portConstraint=eastwest;rotatable=0;fontFamily=Helvetica;fontSize=19;" vertex="1" parent="wbTkz9vaadN7zLrcwkUB-14">
          <mxGeometry y="120" width="200" height="30" as="geometry" />
        </mxCell>
        <mxCell id="wbTkz9vaadN7zLrcwkUB-20" value="SMR2" style="text;strokeColor=none;fillColor=none;align=left;verticalAlign=middle;spacingLeft=4;spacingRight=4;overflow=hidden;points=[[0,0.5],[1,0.5]];portConstraint=eastwest;rotatable=0;fontFamily=Helvetica;fontSize=19;" vertex="1" parent="wbTkz9vaadN7zLrcwkUB-14">
          <mxGeometry y="150" width="200" height="30" as="geometry" />
        </mxCell>
        <mxCell id="wbTkz9vaadN7zLrcwkUB-17" value="Archive" style="text;strokeColor=none;fillColor=none;align=left;verticalAlign=middle;spacingLeft=4;spacingRight=4;overflow=hidden;points=[[0,0.5],[1,0.5]];portConstraint=eastwest;rotatable=0;fontFamily=Helvetica;fontSize=19;" vertex="1" parent="wbTkz9vaadN7zLrcwkUB-14">
          <mxGeometry y="180" width="200" height="30" as="geometry" />
        </mxCell>
        <mxCell id="wbTkz9vaadN7zLrcwkUB-21" value="Integration" style="swimlane;fontStyle=0;childLayout=stackLayout;horizontal=1;startSize=30;horizontalStack=0;resizeParent=1;resizeParentMax=0;resizeLast=0;collapsible=1;marginBottom=0;fontFamily=Helvetica;fontSize=27;" vertex="1" parent="1">
          <mxGeometry x="20" y="80" width="170" height="90" as="geometry" />
        </mxCell>
        <mxCell id="wbTkz9vaadN7zLrcwkUB-22" value="Approve" style="text;strokeColor=none;fillColor=none;align=left;verticalAlign=middle;spacingLeft=4;spacingRight=4;overflow=hidden;points=[[0,0.5],[1,0.5]];portConstraint=eastwest;rotatable=0;fontFamily=Helvetica;fontSize=19;" vertex="1" parent="wbTkz9vaadN7zLrcwkUB-21">
          <mxGeometry y="30" width="170" height="30" as="geometry" />
        </mxCell>
        <mxCell id="wbTkz9vaadN7zLrcwkUB-23" value="UI kit" style="text;strokeColor=none;fillColor=none;align=left;verticalAlign=middle;spacingLeft=4;spacingRight=4;overflow=hidden;points=[[0,0.5],[1,0.5]];portConstraint=eastwest;rotatable=0;fontFamily=Helvetica;fontSize=19;" vertex="1" parent="wbTkz9vaadN7zLrcwkUB-21">
          <mxGeometry y="60" width="170" height="30" as="geometry" />
        </mxCell>
        <mxCell id="wbTkz9vaadN7zLrcwkUB-25" value="." style="swimlane;startSize=20;horizontal=1;childLayout=treeLayout;horizontalTree=0;resizable=0;containerType=tree;fontFamily=Helvetica;fontSize=19;" vertex="1" parent="1">
          <mxGeometry x="-456" y="320" width="1726" height="370" as="geometry" />
        </mxCell>
        <mxCell id="wbTkz9vaadN7zLrcwkUB-26" value="Root" style="whiteSpace=wrap;html=1;fontFamily=Helvetica;fontSize=19;" vertex="1" parent="wbTkz9vaadN7zLrcwkUB-25">
          <mxGeometry x="815.5" y="40" width="100" height="40" as="geometry" />
        </mxCell>
        <mxCell id="wbTkz9vaadN7zLrcwkUB-27" value="App" style="whiteSpace=wrap;html=1;fontFamily=Helvetica;fontSize=19;" vertex="1" parent="wbTkz9vaadN7zLrcwkUB-25">
          <mxGeometry x="370" y="130" width="100" height="40" as="geometry" />
        </mxCell>
        <mxCell id="wbTkz9vaadN7zLrcwkUB-28" value="" style="edgeStyle=elbowEdgeStyle;elbow=vertical;html=1;rounded=0;fontFamily=Helvetica;fontSize=19;" edge="1" parent="wbTkz9vaadN7zLrcwkUB-25" source="wbTkz9vaadN7zLrcwkUB-26" target="wbTkz9vaadN7zLrcwkUB-27">
          <mxGeometry relative="1" as="geometry" />
        </mxCell>
        <mxCell id="wbTkz9vaadN7zLrcwkUB-29" value="Libs" style="whiteSpace=wrap;html=1;fontFamily=Helvetica;fontSize=19;" vertex="1" parent="wbTkz9vaadN7zLrcwkUB-25">
          <mxGeometry x="1261" y="130" width="100" height="40" as="geometry" />
        </mxCell>
        <mxCell id="wbTkz9vaadN7zLrcwkUB-30" value="" style="edgeStyle=elbowEdgeStyle;elbow=vertical;html=1;rounded=0;fontFamily=Helvetica;fontSize=19;" edge="1" parent="wbTkz9vaadN7zLrcwkUB-25" source="wbTkz9vaadN7zLrcwkUB-26" target="wbTkz9vaadN7zLrcwkUB-29">
          <mxGeometry relative="1" as="geometry" />
        </mxCell>
        <mxCell id="wbTkz9vaadN7zLrcwkUB-31" value="" style="edgeStyle=elbowEdgeStyle;elbow=vertical;html=1;rounded=0;fontFamily=Helvetica;fontSize=19;" edge="1" target="wbTkz9vaadN7zLrcwkUB-32" source="wbTkz9vaadN7zLrcwkUB-29" parent="wbTkz9vaadN7zLrcwkUB-25">
          <mxGeometry relative="1" as="geometry">
            <mxPoint x="-5236" y="490" as="sourcePoint" />
          </mxGeometry>
        </mxCell>
        <mxCell id="wbTkz9vaadN7zLrcwkUB-32" value="Shared" style="whiteSpace=wrap;html=1;fontFamily=Helvetica;fontSize=19;" vertex="1" parent="wbTkz9vaadN7zLrcwkUB-25">
          <mxGeometry x="916" y="220" width="100" height="40" as="geometry" />
        </mxCell>
        <mxCell id="wbTkz9vaadN7zLrcwkUB-35" value="" style="edgeStyle=elbowEdgeStyle;elbow=vertical;html=1;rounded=0;fontFamily=Helvetica;fontSize=19;" edge="1" target="wbTkz9vaadN7zLrcwkUB-36" source="wbTkz9vaadN7zLrcwkUB-32" parent="wbTkz9vaadN7zLrcwkUB-25">
          <mxGeometry relative="1" as="geometry">
            <mxPoint x="-5166" y="580" as="sourcePoint" />
          </mxGeometry>
        </mxCell>
        <mxCell id="wbTkz9vaadN7zLrcwkUB-36" value="UI kit" style="whiteSpace=wrap;html=1;fontFamily=Helvetica;fontSize=19;" vertex="1" parent="wbTkz9vaadN7zLrcwkUB-25">
          <mxGeometry x="846" y="310" width="100" height="40" as="geometry" />
        </mxCell>
        <mxCell id="wbTkz9vaadN7zLrcwkUB-37" value="" style="edgeStyle=elbowEdgeStyle;elbow=vertical;html=1;rounded=0;fontFamily=Helvetica;fontSize=19;" edge="1" target="wbTkz9vaadN7zLrcwkUB-38" source="wbTkz9vaadN7zLrcwkUB-27" parent="wbTkz9vaadN7zLrcwkUB-25">
          <mxGeometry relative="1" as="geometry">
            <mxPoint x="-5236" y="490" as="sourcePoint" />
          </mxGeometry>
        </mxCell>
        <mxCell id="wbTkz9vaadN7zLrcwkUB-38" value="Admin" style="whiteSpace=wrap;html=1;fontFamily=Helvetica;fontSize=19;" vertex="1" parent="wbTkz9vaadN7zLrcwkUB-25">
          <mxGeometry x="20" y="220" width="100" height="40" as="geometry" />
        </mxCell>
        <mxCell id="wbTkz9vaadN7zLrcwkUB-39" value="" style="edgeStyle=elbowEdgeStyle;elbow=vertical;html=1;rounded=0;fontFamily=Helvetica;fontSize=19;" edge="1" target="wbTkz9vaadN7zLrcwkUB-40" source="wbTkz9vaadN7zLrcwkUB-27" parent="wbTkz9vaadN7zLrcwkUB-25">
          <mxGeometry relative="1" as="geometry">
            <mxPoint x="-5236" y="490" as="sourcePoint" />
          </mxGeometry>
        </mxCell>
        <mxCell id="wbTkz9vaadN7zLrcwkUB-40" value="QC" style="whiteSpace=wrap;html=1;fontFamily=Helvetica;fontSize=19;" vertex="1" parent="wbTkz9vaadN7zLrcwkUB-25">
          <mxGeometry x="160" y="220" width="100" height="40" as="geometry" />
        </mxCell>
        <mxCell id="wbTkz9vaadN7zLrcwkUB-41" value="" style="edgeStyle=elbowEdgeStyle;elbow=vertical;html=1;rounded=0;fontFamily=Helvetica;fontSize=19;" edge="1" target="wbTkz9vaadN7zLrcwkUB-42" source="wbTkz9vaadN7zLrcwkUB-27" parent="wbTkz9vaadN7zLrcwkUB-25">
          <mxGeometry relative="1" as="geometry">
            <mxPoint x="-5061" y="490" as="sourcePoint" />
          </mxGeometry>
        </mxCell>
        <mxCell id="wbTkz9vaadN7zLrcwkUB-42" value="SK" style="whiteSpace=wrap;html=1;fontFamily=Helvetica;fontSize=19;" vertex="1" parent="wbTkz9vaadN7zLrcwkUB-25">
          <mxGeometry x="300" y="220" width="100" height="40" as="geometry" />
        </mxCell>
        <mxCell id="wbTkz9vaadN7zLrcwkUB-43" value="" style="edgeStyle=elbowEdgeStyle;elbow=vertical;html=1;rounded=0;fontFamily=Helvetica;fontSize=19;" edge="1" target="wbTkz9vaadN7zLrcwkUB-44" source="wbTkz9vaadN7zLrcwkUB-27" parent="wbTkz9vaadN7zLrcwkUB-25">
          <mxGeometry relative="1" as="geometry">
            <mxPoint x="-4781" y="490" as="sourcePoint" />
          </mxGeometry>
        </mxCell>
        <mxCell id="wbTkz9vaadN7zLrcwkUB-44" value="SMR" style="whiteSpace=wrap;html=1;fontFamily=Helvetica;fontSize=19;" vertex="1" parent="wbTkz9vaadN7zLrcwkUB-25">
          <mxGeometry x="440" y="220" width="100" height="40" as="geometry" />
        </mxCell>
        <mxCell id="wbTkz9vaadN7zLrcwkUB-45" value="" style="edgeStyle=elbowEdgeStyle;elbow=vertical;html=1;rounded=0;fontFamily=Helvetica;fontSize=19;" edge="1" target="wbTkz9vaadN7zLrcwkUB-46" source="wbTkz9vaadN7zLrcwkUB-29" parent="wbTkz9vaadN7zLrcwkUB-25">
          <mxGeometry relative="1" as="geometry">
            <mxPoint x="-4396" y="490" as="sourcePoint" />
          </mxGeometry>
        </mxCell>
        <mxCell id="wbTkz9vaadN7zLrcwkUB-46" value="DataAccess" style="whiteSpace=wrap;html=1;fontFamily=Helvetica;fontSize=19;" vertex="1" parent="wbTkz9vaadN7zLrcwkUB-25">
          <mxGeometry x="1206" y="220" width="120" height="40" as="geometry" />
        </mxCell>
        <mxCell id="wbTkz9vaadN7zLrcwkUB-47" value="" style="edgeStyle=elbowEdgeStyle;elbow=vertical;html=1;rounded=0;fontFamily=Helvetica;fontSize=19;" edge="1" target="wbTkz9vaadN7zLrcwkUB-48" source="wbTkz9vaadN7zLrcwkUB-29" parent="wbTkz9vaadN7zLrcwkUB-25">
          <mxGeometry relative="1" as="geometry">
            <mxPoint x="-3976" y="490" as="sourcePoint" />
          </mxGeometry>
        </mxCell>
        <mxCell id="wbTkz9vaadN7zLrcwkUB-48" value="Libs for apps" style="whiteSpace=wrap;html=1;fontFamily=Helvetica;fontSize=19;" vertex="1" parent="wbTkz9vaadN7zLrcwkUB-25">
          <mxGeometry x="1430" y="220" width="136" height="40" as="geometry" />
        </mxCell>
        <mxCell id="wbTkz9vaadN7zLrcwkUB-49" value="" style="edgeStyle=elbowEdgeStyle;elbow=vertical;html=1;rounded=0;fontFamily=Helvetica;fontSize=19;" edge="1" target="wbTkz9vaadN7zLrcwkUB-50" source="wbTkz9vaadN7zLrcwkUB-29" parent="wbTkz9vaadN7zLrcwkUB-25">
          <mxGeometry relative="1" as="geometry">
            <mxPoint x="-3521" y="490" as="sourcePoint" />
          </mxGeometry>
        </mxCell>
        <mxCell id="wbTkz9vaadN7zLrcwkUB-50" value="Utils" style="whiteSpace=wrap;html=1;fontFamily=Helvetica;fontSize=19;" vertex="1" parent="wbTkz9vaadN7zLrcwkUB-25">
          <mxGeometry x="1606" y="220" width="100" height="40" as="geometry" />
        </mxCell>
        <mxCell id="wbTkz9vaadN7zLrcwkUB-51" value="" style="edgeStyle=elbowEdgeStyle;elbow=vertical;html=1;rounded=0;fontFamily=Helvetica;fontSize=19;" edge="1" target="wbTkz9vaadN7zLrcwkUB-52" source="wbTkz9vaadN7zLrcwkUB-27" parent="wbTkz9vaadN7zLrcwkUB-25">
          <mxGeometry relative="1" as="geometry">
            <mxPoint x="-3031" y="490" as="sourcePoint" />
          </mxGeometry>
        </mxCell>
        <mxCell id="wbTkz9vaadN7zLrcwkUB-52" value="SMR2" style="whiteSpace=wrap;html=1;fontFamily=Helvetica;fontSize=19;" vertex="1" parent="wbTkz9vaadN7zLrcwkUB-25">
          <mxGeometry x="580" y="220" width="100" height="40" as="geometry" />
        </mxCell>
        <mxCell id="wbTkz9vaadN7zLrcwkUB-53" value="" style="edgeStyle=elbowEdgeStyle;elbow=vertical;html=1;rounded=0;fontFamily=Helvetica;fontSize=19;" edge="1" target="wbTkz9vaadN7zLrcwkUB-54" source="wbTkz9vaadN7zLrcwkUB-27" parent="wbTkz9vaadN7zLrcwkUB-25">
          <mxGeometry relative="1" as="geometry">
            <mxPoint x="-2436" y="490" as="sourcePoint" />
          </mxGeometry>
        </mxCell>
        <mxCell id="wbTkz9vaadN7zLrcwkUB-54" value="Archive" style="whiteSpace=wrap;html=1;fontFamily=Helvetica;fontSize=19;" vertex="1" parent="wbTkz9vaadN7zLrcwkUB-25">
          <mxGeometry x="720" y="220" width="100" height="40" as="geometry" />
        </mxCell>
        <mxCell id="wbTkz9vaadN7zLrcwkUB-55" value="" style="edgeStyle=elbowEdgeStyle;elbow=vertical;html=1;rounded=0;fontFamily=Helvetica;fontSize=19;" edge="1" target="wbTkz9vaadN7zLrcwkUB-56" source="wbTkz9vaadN7zLrcwkUB-46" parent="wbTkz9vaadN7zLrcwkUB-25">
          <mxGeometry relative="1" as="geometry">
            <mxPoint x="-1460.75" y="520" as="sourcePoint" />
          </mxGeometry>
        </mxCell>
        <mxCell id="wbTkz9vaadN7zLrcwkUB-56" value="Store" style="whiteSpace=wrap;html=1;fontFamily=Helvetica;fontSize=19;" vertex="1" parent="wbTkz9vaadN7zLrcwkUB-25">
          <mxGeometry x="1126" y="310" width="120" height="40" as="geometry" />
        </mxCell>
        <mxCell id="wbTkz9vaadN7zLrcwkUB-57" value="" style="edgeStyle=elbowEdgeStyle;elbow=vertical;html=1;rounded=0;fontFamily=Helvetica;fontSize=19;" edge="1" target="wbTkz9vaadN7zLrcwkUB-58" source="wbTkz9vaadN7zLrcwkUB-46" parent="wbTkz9vaadN7zLrcwkUB-25">
          <mxGeometry relative="1" as="geometry">
            <mxPoint x="-1461" y="520" as="sourcePoint" />
          </mxGeometry>
        </mxCell>
        <mxCell id="wbTkz9vaadN7zLrcwkUB-58" value="HttpService" style="whiteSpace=wrap;html=1;fontFamily=Helvetica;fontSize=19;" vertex="1" parent="wbTkz9vaadN7zLrcwkUB-25">
          <mxGeometry x="1286" y="310" width="120" height="40" as="geometry" />
        </mxCell>
        <mxCell id="wbTkz9vaadN7zLrcwkUB-61" value="" style="edgeStyle=elbowEdgeStyle;elbow=vertical;html=1;rounded=0;fontFamily=Helvetica;fontSize=19;" edge="1" target="wbTkz9vaadN7zLrcwkUB-62" source="wbTkz9vaadN7zLrcwkUB-32" parent="wbTkz9vaadN7zLrcwkUB-25">
          <mxGeometry relative="1" as="geometry">
            <mxPoint x="14" y="490" as="sourcePoint" />
          </mxGeometry>
        </mxCell>
        <mxCell id="wbTkz9vaadN7zLrcwkUB-62" value="Auth" style="whiteSpace=wrap;html=1;fontFamily=Helvetica;fontSize=19;" vertex="1" parent="wbTkz9vaadN7zLrcwkUB-25">
          <mxGeometry x="986" y="310" width="100" height="40" as="geometry" />
        </mxCell>
      </root>
    </mxGraphModel>
  </diagram>
</mxfile>
